<svg width="17" height="17" viewBox="0 0 17 17" fill="none" xmlns="http://www.w3.org/2000/svg">
  <path
          d="M4.675 11.6869H12.325C12.6771 11.6869 12.9625 11.9723 12.9625 12.3244C12.9625 12.6764 12.6771 12.9618 12.325 12.9618H4.675C4.32292 12.9618 4.0375 12.6764 4.0375 12.3244C4.0375 11.9723 4.32292 11.6869 4.675 11.6869Z"
          fill="#434B69"/>
  <path fill-rule="evenodd" clip-rule="evenodd"
        d="M15.5465 4.25005L10.8205 0.756845C9.43809 -0.252282 7.56191 -0.252282 6.1795 0.756845L1.462 4.25005C0.548626 4.90801 0.00518785 5.9632 0 7.08881V13.4038C0.0510208 15.4379 1.73965 17.0465 3.774 16.999H13.226C15.2604 17.0465 16.949 15.4379 17 13.4038V7.08031C16.9927 5.95957 16.4532 4.90899 15.5465 4.25005ZM15.725 13.4038C15.6743 14.7339 14.5563 15.7719 13.226 15.7241H3.774C2.44543 15.7672 1.33027 14.7318 1.275 13.4038V7.08881C1.27953 6.3663 1.63044 5.68983 2.2185 5.26996L6.936 1.78526C7.86768 1.10496 9.13232 1.10496 10.064 1.78526L14.7815 5.27846C15.3691 5.69104 15.7206 6.36242 15.725 7.08031V13.4038Z"
        fill="#434B69"/>
</svg>